<mxfile host="Electron" agent="Mozilla/5.0 (Windows NT 10.0; Win64; x64) AppleWebKit/537.36 (KHTML, like Gecko) draw.io/27.0.9 Chrome/134.0.6998.205 Electron/35.4.0 Safari/537.36" version="27.0.9">
  <diagram name="Page-1" id="sample">
    <mxGraphModel dx="690" dy="593" grid="1" gridSize="5" guides="1" tooltips="1" connect="1" arrows="1" fold="1" page="1" pageScale="1" pageWidth="413" pageHeight="583" math="0" shadow="0">
      <root>
        <mxCell id="0" />
        <mxCell id="1" parent="0" />
        <mxCell id="tOcL6-T-TK3MPG_TwiWJ-7" value="WFIUserDto" style="swimlane;fontStyle=0;childLayout=stackLayout;horizontal=1;startSize=26;fillColor=none;horizontalStack=0;resizeParent=1;resizeParentMax=0;resizeLast=0;collapsible=1;marginBottom=0;whiteSpace=wrap;html=1;" parent="1" vertex="1">
          <mxGeometry x="145" y="935" width="140" height="208" as="geometry" />
        </mxCell>
        <mxCell id="tOcL6-T-TK3MPG_TwiWJ-8" value="id" style="text;strokeColor=none;fillColor=none;align=left;verticalAlign=top;spacingLeft=4;spacingRight=4;overflow=hidden;rotatable=0;points=[[0,0.5],[1,0.5]];portConstraint=eastwest;whiteSpace=wrap;html=1;" parent="tOcL6-T-TK3MPG_TwiWJ-7" vertex="1">
          <mxGeometry y="26" width="140" height="26" as="geometry" />
        </mxCell>
        <mxCell id="tOcL6-T-TK3MPG_TwiWJ-9" value="lineManager" style="text;strokeColor=none;fillColor=none;align=left;verticalAlign=top;spacingLeft=4;spacingRight=4;overflow=hidden;rotatable=0;points=[[0,0.5],[1,0.5]];portConstraint=eastwest;whiteSpace=wrap;html=1;" parent="tOcL6-T-TK3MPG_TwiWJ-7" vertex="1">
          <mxGeometry y="52" width="140" height="26" as="geometry" />
        </mxCell>
        <mxCell id="tOcL6-T-TK3MPG_TwiWJ-15" value="mailInternal" style="text;strokeColor=none;fillColor=none;align=left;verticalAlign=top;spacingLeft=4;spacingRight=4;overflow=hidden;rotatable=0;points=[[0,0.5],[1,0.5]];portConstraint=eastwest;whiteSpace=wrap;html=1;" parent="tOcL6-T-TK3MPG_TwiWJ-7" vertex="1">
          <mxGeometry y="78" width="140" height="26" as="geometry" />
        </mxCell>
        <mxCell id="tOcL6-T-TK3MPG_TwiWJ-16" value="lineManager" style="text;strokeColor=none;fillColor=none;align=left;verticalAlign=top;spacingLeft=4;spacingRight=4;overflow=hidden;rotatable=0;points=[[0,0.5],[1,0.5]];portConstraint=eastwest;whiteSpace=wrap;html=1;" parent="tOcL6-T-TK3MPG_TwiWJ-7" vertex="1">
          <mxGeometry y="104" width="140" height="26" as="geometry" />
        </mxCell>
        <mxCell id="tOcL6-T-TK3MPG_TwiWJ-17" value="personalNumber" style="text;strokeColor=none;fillColor=none;align=left;verticalAlign=top;spacingLeft=4;spacingRight=4;overflow=hidden;rotatable=0;points=[[0,0.5],[1,0.5]];portConstraint=eastwest;whiteSpace=wrap;html=1;" parent="tOcL6-T-TK3MPG_TwiWJ-7" vertex="1">
          <mxGeometry y="130" width="140" height="26" as="geometry" />
        </mxCell>
        <mxCell id="tOcL6-T-TK3MPG_TwiWJ-18" value="displayName" style="text;strokeColor=none;fillColor=none;align=left;verticalAlign=top;spacingLeft=4;spacingRight=4;overflow=hidden;rotatable=0;points=[[0,0.5],[1,0.5]];portConstraint=eastwest;whiteSpace=wrap;html=1;" parent="tOcL6-T-TK3MPG_TwiWJ-7" vertex="1">
          <mxGeometry y="156" width="140" height="26" as="geometry" />
        </mxCell>
        <mxCell id="tOcL6-T-TK3MPG_TwiWJ-10" value="lastName" style="text;strokeColor=none;fillColor=none;align=left;verticalAlign=top;spacingLeft=4;spacingRight=4;overflow=hidden;rotatable=0;points=[[0,0.5],[1,0.5]];portConstraint=eastwest;whiteSpace=wrap;html=1;" parent="tOcL6-T-TK3MPG_TwiWJ-7" vertex="1">
          <mxGeometry y="182" width="140" height="26" as="geometry" />
        </mxCell>
        <mxCell id="tOcL6-T-TK3MPG_TwiWJ-11" value="WFIResponseDto" style="swimlane;fontStyle=0;childLayout=stackLayout;horizontal=1;startSize=26;fillColor=none;horizontalStack=0;resizeParent=1;resizeParentMax=0;resizeLast=0;collapsible=1;marginBottom=0;whiteSpace=wrap;html=1;" parent="1" vertex="1">
          <mxGeometry x="387" y="935" width="160" height="130" as="geometry" />
        </mxCell>
        <mxCell id="tOcL6-T-TK3MPG_TwiWJ-22" value="result: List&amp;lt;WFIUserDto&amp;gt;" style="text;strokeColor=none;fillColor=none;align=left;verticalAlign=top;spacingLeft=4;spacingRight=4;overflow=hidden;rotatable=0;points=[[0,0.5],[1,0.5]];portConstraint=eastwest;whiteSpace=wrap;html=1;" parent="tOcL6-T-TK3MPG_TwiWJ-11" vertex="1">
          <mxGeometry y="26" width="160" height="26" as="geometry" />
        </mxCell>
        <mxCell id="tOcL6-T-TK3MPG_TwiWJ-21" value="resultCount" style="text;strokeColor=none;fillColor=none;align=left;verticalAlign=top;spacingLeft=4;spacingRight=4;overflow=hidden;rotatable=0;points=[[0,0.5],[1,0.5]];portConstraint=eastwest;whiteSpace=wrap;html=1;" parent="tOcL6-T-TK3MPG_TwiWJ-11" vertex="1">
          <mxGeometry y="52" width="160" height="26" as="geometry" />
        </mxCell>
        <mxCell id="tOcL6-T-TK3MPG_TwiWJ-20" value="pagedResultsCookie" style="text;strokeColor=none;fillColor=none;align=left;verticalAlign=top;spacingLeft=4;spacingRight=4;overflow=hidden;rotatable=0;points=[[0,0.5],[1,0.5]];portConstraint=eastwest;whiteSpace=wrap;html=1;" parent="tOcL6-T-TK3MPG_TwiWJ-11" vertex="1">
          <mxGeometry y="78" width="160" height="26" as="geometry" />
        </mxCell>
        <mxCell id="tOcL6-T-TK3MPG_TwiWJ-19" value="totalPagedResults" style="text;strokeColor=none;fillColor=none;align=left;verticalAlign=top;spacingLeft=4;spacingRight=4;overflow=hidden;rotatable=0;points=[[0,0.5],[1,0.5]];portConstraint=eastwest;whiteSpace=wrap;html=1;" parent="tOcL6-T-TK3MPG_TwiWJ-11" vertex="1">
          <mxGeometry y="104" width="160" height="26" as="geometry" />
        </mxCell>
        <mxCell id="tOcL6-T-TK3MPG_TwiWJ-23" value="" style="endArrow=diamondThin;endFill=1;endSize=24;html=1;rounded=0;entryX=1.007;entryY=0.942;entryDx=0;entryDy=0;exitX=-0.006;exitY=-0.096;exitDx=0;exitDy=0;exitPerimeter=0;entryPerimeter=0;" parent="1" source="tOcL6-T-TK3MPG_TwiWJ-20" target="tOcL6-T-TK3MPG_TwiWJ-9" edge="1">
          <mxGeometry width="160" relative="1" as="geometry">
            <mxPoint x="285" y="839" as="sourcePoint" />
            <mxPoint x="445" y="839" as="targetPoint" />
          </mxGeometry>
        </mxCell>
        <mxCell id="tOcL6-T-TK3MPG_TwiWJ-24" value="WFIService" style="swimlane;fontStyle=1;align=center;verticalAlign=top;childLayout=stackLayout;horizontal=1;startSize=26;horizontalStack=0;resizeParent=1;resizeParentMax=0;resizeLast=0;collapsible=1;marginBottom=0;whiteSpace=wrap;html=1;" parent="1" vertex="1">
          <mxGeometry x="290" y="715" width="246" height="138" as="geometry" />
        </mxCell>
        <mxCell id="tOcL6-T-TK3MPG_TwiWJ-36" value="+ wfiClient: WFIClient" style="text;strokeColor=none;fillColor=none;align=left;verticalAlign=top;spacingLeft=4;spacingRight=4;overflow=hidden;rotatable=0;points=[[0,0.5],[1,0.5]];portConstraint=eastwest;whiteSpace=wrap;html=1;" parent="tOcL6-T-TK3MPG_TwiWJ-24" vertex="1">
          <mxGeometry y="26" width="246" height="26" as="geometry" />
        </mxCell>
        <mxCell id="tOcL6-T-TK3MPG_TwiWJ-25" value="+ OAuth2JwtService: OAuth2JwtS" style="text;strokeColor=none;fillColor=none;align=left;verticalAlign=top;spacingLeft=4;spacingRight=4;overflow=hidden;rotatable=0;points=[[0,0.5],[1,0.5]];portConstraint=eastwest;whiteSpace=wrap;html=1;" parent="tOcL6-T-TK3MPG_TwiWJ-24" vertex="1">
          <mxGeometry y="52" width="246" height="26" as="geometry" />
        </mxCell>
        <mxCell id="tOcL6-T-TK3MPG_TwiWJ-26" value="" style="line;strokeWidth=1;fillColor=none;align=left;verticalAlign=middle;spacingTop=-1;spacingLeft=3;spacingRight=3;rotatable=0;labelPosition=right;points=[];portConstraint=eastwest;strokeColor=inherit;" parent="tOcL6-T-TK3MPG_TwiWJ-24" vertex="1">
          <mxGeometry y="78" width="246" height="8" as="geometry" />
        </mxCell>
        <mxCell id="tOcL6-T-TK3MPG_TwiWJ-27" value="+ getUserByEmployeeNumber(type): type" style="text;strokeColor=none;fillColor=none;align=left;verticalAlign=top;spacingLeft=4;spacingRight=4;overflow=hidden;rotatable=0;points=[[0,0.5],[1,0.5]];portConstraint=eastwest;whiteSpace=wrap;html=1;" parent="tOcL6-T-TK3MPG_TwiWJ-24" vertex="1">
          <mxGeometry y="86" width="246" height="26" as="geometry" />
        </mxCell>
        <mxCell id="tOcL6-T-TK3MPG_TwiWJ-70" value="+ getUserByEmail(type): type" style="text;strokeColor=none;fillColor=none;align=left;verticalAlign=top;spacingLeft=4;spacingRight=4;overflow=hidden;rotatable=0;points=[[0,0.5],[1,0.5]];portConstraint=eastwest;whiteSpace=wrap;html=1;" parent="tOcL6-T-TK3MPG_TwiWJ-24" vertex="1">
          <mxGeometry y="112" width="246" height="26" as="geometry" />
        </mxCell>
        <mxCell id="tOcL6-T-TK3MPG_TwiWJ-28" value="" style="endArrow=open;endSize=12;dashed=1;html=1;rounded=0;edgeStyle=orthogonalEdgeStyle;exitX=0.561;exitY=0.978;exitDx=0;exitDy=0;exitPerimeter=0;" parent="1" source="tOcL6-T-TK3MPG_TwiWJ-70" target="tOcL6-T-TK3MPG_TwiWJ-11" edge="1">
          <mxGeometry width="160" relative="1" as="geometry">
            <mxPoint x="420" y="825" as="sourcePoint" />
            <mxPoint x="575" y="789" as="targetPoint" />
            <Array as="points">
              <mxPoint x="428" y="888" />
              <mxPoint x="467" y="888" />
            </Array>
          </mxGeometry>
        </mxCell>
        <mxCell id="tOcL6-T-TK3MPG_TwiWJ-29" value="WFIClient" style="swimlane;fontStyle=1;align=center;verticalAlign=top;childLayout=stackLayout;horizontal=1;startSize=26;horizontalStack=0;resizeParent=1;resizeParentMax=0;resizeLast=0;collapsible=1;marginBottom=0;whiteSpace=wrap;html=1;" parent="1" vertex="1">
          <mxGeometry x="580" y="835" width="170" height="70" as="geometry" />
        </mxCell>
        <mxCell id="tOcL6-T-TK3MPG_TwiWJ-32" value="+ queryUser(queryString): WFIResponseDto" style="text;strokeColor=none;fillColor=none;align=left;verticalAlign=top;spacingLeft=4;spacingRight=4;overflow=hidden;rotatable=0;points=[[0,0.5],[1,0.5]];portConstraint=eastwest;whiteSpace=wrap;html=1;" parent="tOcL6-T-TK3MPG_TwiWJ-29" vertex="1">
          <mxGeometry y="26" width="170" height="44" as="geometry" />
        </mxCell>
        <mxCell id="tOcL6-T-TK3MPG_TwiWJ-34" value="Work Force Identity API" style="verticalAlign=top;align=left;spacingTop=8;spacingLeft=2;spacingRight=12;shape=cube;size=10;direction=south;fontStyle=4;html=1;whiteSpace=wrap;" parent="1" vertex="1">
          <mxGeometry x="850" y="818" width="180" height="120" as="geometry" />
        </mxCell>
        <mxCell id="tOcL6-T-TK3MPG_TwiWJ-35" value="dispatch" style="html=1;verticalAlign=bottom;startArrow=oval;startFill=1;endArrow=block;startSize=8;curved=0;rounded=0;entryX=0;entryY=0;entryDx=65;entryDy=180;entryPerimeter=0;exitX=1;exitY=0.5;exitDx=0;exitDy=0;" parent="1" source="tOcL6-T-TK3MPG_TwiWJ-32" target="tOcL6-T-TK3MPG_TwiWJ-34" edge="1">
          <mxGeometry width="60" relative="1" as="geometry">
            <mxPoint x="850" y="763.58" as="sourcePoint" />
            <mxPoint x="910" y="763.58" as="targetPoint" />
          </mxGeometry>
        </mxCell>
        <mxCell id="tOcL6-T-TK3MPG_TwiWJ-37" value="OAuth2JwtService" style="swimlane;fontStyle=1;align=center;verticalAlign=top;childLayout=stackLayout;horizontal=1;startSize=26;horizontalStack=0;resizeParent=1;resizeParentMax=0;resizeLast=0;collapsible=1;marginBottom=0;whiteSpace=wrap;html=1;" parent="1" vertex="1">
          <mxGeometry x="590" y="609" width="250" height="95" as="geometry" />
        </mxCell>
        <mxCell id="tOcL6-T-TK3MPG_TwiWJ-38" value="+ OAuth2JwtClient: type" style="text;strokeColor=none;fillColor=none;align=left;verticalAlign=top;spacingLeft=4;spacingRight=4;overflow=hidden;rotatable=0;points=[[0,0.5],[1,0.5]];portConstraint=eastwest;whiteSpace=wrap;html=1;" parent="tOcL6-T-TK3MPG_TwiWJ-37" vertex="1">
          <mxGeometry y="26" width="250" height="26" as="geometry" />
        </mxCell>
        <mxCell id="tOcL6-T-TK3MPG_TwiWJ-39" value="" style="line;strokeWidth=1;fillColor=none;align=left;verticalAlign=middle;spacingTop=-1;spacingLeft=3;spacingRight=3;rotatable=0;labelPosition=right;points=[];portConstraint=eastwest;strokeColor=inherit;" parent="tOcL6-T-TK3MPG_TwiWJ-37" vertex="1">
          <mxGeometry y="52" width="250" height="8" as="geometry" />
        </mxCell>
        <mxCell id="tOcL6-T-TK3MPG_TwiWJ-53" value="+ fetchNewToken(AuthTokenConfig): String" style="text;strokeColor=none;fillColor=none;align=left;verticalAlign=top;spacingLeft=4;spacingRight=4;overflow=hidden;rotatable=0;points=[[0,0.5],[1,0.5]];portConstraint=eastwest;whiteSpace=wrap;html=1;" parent="tOcL6-T-TK3MPG_TwiWJ-37" vertex="1">
          <mxGeometry y="60" width="250" height="35" as="geometry" />
        </mxCell>
        <mxCell id="tOcL6-T-TK3MPG_TwiWJ-41" value="AbstractAuthorizationService" style="swimlane;fontStyle=1;align=center;verticalAlign=top;childLayout=stackLayout;horizontal=1;startSize=26;horizontalStack=0;resizeParent=1;resizeParentMax=0;resizeLast=0;collapsible=1;marginBottom=0;whiteSpace=wrap;html=1;" parent="1" vertex="1">
          <mxGeometry x="700" y="350" width="320" height="202" as="geometry">
            <mxRectangle x="710" y="185" width="190" height="30" as="alternateBounds" />
          </mxGeometry>
        </mxCell>
        <mxCell id="tOcL6-T-TK3MPG_TwiWJ-42" value="+ jwtService: JwtService" style="text;strokeColor=none;fillColor=none;align=left;verticalAlign=top;spacingLeft=4;spacingRight=4;overflow=hidden;rotatable=0;points=[[0,0.5],[1,0.5]];portConstraint=eastwest;whiteSpace=wrap;html=1;" parent="tOcL6-T-TK3MPG_TwiWJ-41" vertex="1">
          <mxGeometry y="26" width="320" height="26" as="geometry" />
        </mxCell>
        <mxCell id="tOcL6-T-TK3MPG_TwiWJ-64" value="- tokenClaims: Map&amp;lt;String, String&amp;gt;" style="text;strokeColor=none;fillColor=none;align=left;verticalAlign=top;spacingLeft=4;spacingRight=4;overflow=hidden;rotatable=0;points=[[0,0.5],[1,0.5]];portConstraint=eastwest;whiteSpace=wrap;html=1;" parent="tOcL6-T-TK3MPG_TwiWJ-41" vertex="1">
          <mxGeometry y="52" width="320" height="26" as="geometry" />
        </mxCell>
        <mxCell id="tOcL6-T-TK3MPG_TwiWJ-63" value="- tokenStrings: Map&amp;lt;String, String&amp;gt;" style="text;strokeColor=none;fillColor=none;align=left;verticalAlign=top;spacingLeft=4;spacingRight=4;overflow=hidden;rotatable=0;points=[[0,0.5],[1,0.5]];portConstraint=eastwest;whiteSpace=wrap;html=1;" parent="tOcL6-T-TK3MPG_TwiWJ-41" vertex="1">
          <mxGeometry y="78" width="320" height="26" as="geometry" />
        </mxCell>
        <mxCell id="tOcL6-T-TK3MPG_TwiWJ-43" value="" style="line;strokeWidth=1;fillColor=none;align=left;verticalAlign=middle;spacingTop=-1;spacingLeft=3;spacingRight=3;rotatable=0;labelPosition=right;points=[];portConstraint=eastwest;strokeColor=inherit;" parent="tOcL6-T-TK3MPG_TwiWJ-41" vertex="1">
          <mxGeometry y="104" width="320" height="8" as="geometry" />
        </mxCell>
        <mxCell id="tOcL6-T-TK3MPG_TwiWJ-44" value="+ GetToken(AuthTokenConfig): String" style="text;strokeColor=none;fillColor=none;align=left;verticalAlign=top;spacingLeft=4;spacingRight=4;overflow=hidden;rotatable=0;points=[[0,0.5],[1,0.5]];portConstraint=eastwest;whiteSpace=wrap;html=1;" parent="tOcL6-T-TK3MPG_TwiWJ-41" vertex="1">
          <mxGeometry y="112" width="320" height="30" as="geometry" />
        </mxCell>
        <mxCell id="tOcL6-T-TK3MPG_TwiWJ-51" value="+ fetchNewToken(AuthTokenConfig): String" style="text;strokeColor=none;fillColor=none;align=left;verticalAlign=top;spacingLeft=4;spacingRight=4;overflow=hidden;rotatable=0;points=[[0,0.5],[1,0.5]];portConstraint=eastwest;whiteSpace=wrap;html=1;" parent="tOcL6-T-TK3MPG_TwiWJ-41" vertex="1">
          <mxGeometry y="142" width="320" height="30" as="geometry" />
        </mxCell>
        <mxCell id="tOcL6-T-TK3MPG_TwiWJ-46" value="+ shouldExtractClaims(): boolean" style="text;strokeColor=none;fillColor=none;align=left;verticalAlign=top;spacingLeft=4;spacingRight=4;overflow=hidden;rotatable=0;points=[[0,0.5],[1,0.5]];portConstraint=eastwest;whiteSpace=wrap;html=1;" parent="tOcL6-T-TK3MPG_TwiWJ-41" vertex="1">
          <mxGeometry y="172" width="320" height="30" as="geometry" />
        </mxCell>
        <mxCell id="tOcL6-T-TK3MPG_TwiWJ-45" value="" style="endArrow=block;endSize=16;endFill=0;html=1;rounded=0;exitX=0.5;exitY=0;exitDx=0;exitDy=0;edgeStyle=orthogonalEdgeStyle;" parent="1" source="tOcL6-T-TK3MPG_TwiWJ-37" target="tOcL6-T-TK3MPG_TwiWJ-41" edge="1">
          <mxGeometry width="160" relative="1" as="geometry">
            <mxPoint x="480" y="689" as="sourcePoint" />
            <mxPoint x="640" y="689" as="targetPoint" />
          </mxGeometry>
        </mxCell>
        <mxCell id="tOcL6-T-TK3MPG_TwiWJ-47" value="SecureM2MJwtService" style="swimlane;fontStyle=1;align=center;verticalAlign=top;childLayout=stackLayout;horizontal=1;startSize=26;horizontalStack=0;resizeParent=1;resizeParentMax=0;resizeLast=0;collapsible=1;marginBottom=0;whiteSpace=wrap;html=1;" parent="1" vertex="1">
          <mxGeometry x="880" y="609" width="240" height="95" as="geometry" />
        </mxCell>
        <mxCell id="tOcL6-T-TK3MPG_TwiWJ-48" value="+ secureM2MJwtClient: type" style="text;strokeColor=none;fillColor=none;align=left;verticalAlign=top;spacingLeft=4;spacingRight=4;overflow=hidden;rotatable=0;points=[[0,0.5],[1,0.5]];portConstraint=eastwest;whiteSpace=wrap;html=1;" parent="tOcL6-T-TK3MPG_TwiWJ-47" vertex="1">
          <mxGeometry y="26" width="240" height="26" as="geometry" />
        </mxCell>
        <mxCell id="tOcL6-T-TK3MPG_TwiWJ-49" value="" style="line;strokeWidth=1;fillColor=none;align=left;verticalAlign=middle;spacingTop=-1;spacingLeft=3;spacingRight=3;rotatable=0;labelPosition=right;points=[];portConstraint=eastwest;strokeColor=inherit;" parent="tOcL6-T-TK3MPG_TwiWJ-47" vertex="1">
          <mxGeometry y="52" width="240" height="8" as="geometry" />
        </mxCell>
        <mxCell id="tOcL6-T-TK3MPG_TwiWJ-54" value="+ fetchNewToken(AuthTokenConfig): String" style="text;strokeColor=none;fillColor=none;align=left;verticalAlign=top;spacingLeft=4;spacingRight=4;overflow=hidden;rotatable=0;points=[[0,0.5],[1,0.5]];portConstraint=eastwest;whiteSpace=wrap;html=1;" parent="tOcL6-T-TK3MPG_TwiWJ-47" vertex="1">
          <mxGeometry y="60" width="240" height="35" as="geometry" />
        </mxCell>
        <mxCell id="tOcL6-T-TK3MPG_TwiWJ-55" value="" style="endArrow=block;endSize=16;endFill=0;html=1;rounded=0;exitX=0.5;exitY=0;exitDx=0;exitDy=0;edgeStyle=orthogonalEdgeStyle;" parent="1" edge="1">
          <mxGeometry width="160" relative="1" as="geometry">
            <mxPoint x="999" y="610" as="sourcePoint" />
            <mxPoint x="859" y="551" as="targetPoint" />
            <Array as="points">
              <mxPoint x="999" y="580" />
              <mxPoint x="860" y="580" />
              <mxPoint x="860" y="551" />
            </Array>
          </mxGeometry>
        </mxCell>
        <mxCell id="tOcL6-T-TK3MPG_TwiWJ-57" value="SecureM2M API" style="verticalAlign=top;align=left;spacingTop=8;spacingLeft=2;spacingRight=12;shape=cube;size=10;direction=south;fontStyle=4;html=1;whiteSpace=wrap;" parent="1" vertex="1">
          <mxGeometry x="1335" y="375" width="180" height="120" as="geometry" />
        </mxCell>
        <mxCell id="tOcL6-T-TK3MPG_TwiWJ-58" value="Swisscom Authorization API" style="verticalAlign=top;align=left;spacingTop=8;spacingLeft=2;spacingRight=12;shape=cube;size=10;direction=south;fontStyle=4;html=1;whiteSpace=wrap;" parent="1" vertex="1">
          <mxGeometry x="105" y="370" width="180" height="120" as="geometry" />
        </mxCell>
        <mxCell id="tOcL6-T-TK3MPG_TwiWJ-59" value="dispatch" style="html=1;verticalAlign=bottom;startArrow=oval;startFill=1;endArrow=block;startSize=8;curved=0;rounded=0;entryX=0.553;entryY=0.007;entryDx=0;entryDy=0;entryPerimeter=0;exitX=0;exitY=0.25;exitDx=0;exitDy=0;" parent="1" source="tOcL6-T-TK3MPG_TwiWJ-73" target="tOcL6-T-TK3MPG_TwiWJ-58" edge="1">
          <mxGeometry width="60" relative="1" as="geometry">
            <mxPoint x="410" y="500" as="sourcePoint" />
            <mxPoint x="600" y="460" as="targetPoint" />
          </mxGeometry>
        </mxCell>
        <mxCell id="tOcL6-T-TK3MPG_TwiWJ-60" value="dispatch" style="html=1;verticalAlign=bottom;startArrow=oval;startFill=1;endArrow=block;startSize=8;curved=0;rounded=0;exitX=0.588;exitY=0.025;exitDx=0;exitDy=0;exitPerimeter=0;" parent="1" source="tOcL6-T-TK3MPG_TwiWJ-78" target="tOcL6-T-TK3MPG_TwiWJ-57" edge="1">
          <mxGeometry width="60" relative="1" as="geometry">
            <mxPoint x="1270" y="480" as="sourcePoint" />
            <mxPoint x="680" y="301" as="targetPoint" />
          </mxGeometry>
        </mxCell>
        <mxCell id="tOcL6-T-TK3MPG_TwiWJ-62" style="edgeStyle=orthogonalEdgeStyle;rounded=0;orthogonalLoop=1;jettySize=auto;html=1;" parent="1" edge="1">
          <mxGeometry relative="1" as="geometry">
            <mxPoint x="365" y="465" as="targetPoint" />
            <mxPoint x="440" y="425" as="sourcePoint" />
          </mxGeometry>
        </mxCell>
        <mxCell id="tOcL6-T-TK3MPG_TwiWJ-61" value="Get Authorization Token" style="text;html=1;align=center;verticalAlign=middle;resizable=0;points=[];autosize=1;strokeColor=none;fillColor=none;" parent="1" vertex="1">
          <mxGeometry x="397" y="395" width="150" height="30" as="geometry" />
        </mxCell>
        <mxCell id="tOcL6-T-TK3MPG_TwiWJ-67" value="External&amp;nbsp;" style="text;html=1;align=center;verticalAlign=middle;resizable=0;points=[];autosize=1;strokeColor=none;fillColor=none;" parent="1" vertex="1">
          <mxGeometry x="905" y="788" width="70" height="30" as="geometry" />
        </mxCell>
        <mxCell id="tOcL6-T-TK3MPG_TwiWJ-68" value="External&amp;nbsp;" style="text;html=1;align=center;verticalAlign=middle;resizable=0;points=[];autosize=1;strokeColor=none;fillColor=none;" parent="1" vertex="1">
          <mxGeometry x="1395" y="345" width="70" height="30" as="geometry" />
        </mxCell>
        <mxCell id="tOcL6-T-TK3MPG_TwiWJ-69" value="External&amp;nbsp;" style="text;html=1;align=center;verticalAlign=middle;resizable=0;points=[];autosize=1;strokeColor=none;fillColor=none;" parent="1" vertex="1">
          <mxGeometry x="150" y="340" width="70" height="30" as="geometry" />
        </mxCell>
        <mxCell id="tOcL6-T-TK3MPG_TwiWJ-73" value="OAuth2JwtClient" style="swimlane;fontStyle=1;align=center;verticalAlign=top;childLayout=stackLayout;horizontal=1;startSize=26;horizontalStack=0;resizeParent=1;resizeParentMax=0;resizeLast=0;collapsible=1;marginBottom=0;whiteSpace=wrap;html=1;" parent="1" vertex="1">
          <mxGeometry x="413" y="520" width="135" height="60" as="geometry" />
        </mxCell>
        <mxCell id="tOcL6-T-TK3MPG_TwiWJ-76" value="GetToken()" style="text;strokeColor=none;fillColor=none;align=left;verticalAlign=top;spacingLeft=4;spacingRight=4;overflow=hidden;rotatable=0;points=[[0,0.5],[1,0.5]];portConstraint=eastwest;whiteSpace=wrap;html=1;" parent="tOcL6-T-TK3MPG_TwiWJ-73" vertex="1">
          <mxGeometry y="26" width="135" height="34" as="geometry" />
        </mxCell>
        <mxCell id="tOcL6-T-TK3MPG_TwiWJ-77" value="" style="endArrow=open;endSize=12;dashed=1;html=1;rounded=0;entryX=1;entryY=0.5;entryDx=0;entryDy=0;edgeStyle=orthogonalEdgeStyle;" parent="1" target="tOcL6-T-TK3MPG_TwiWJ-76" edge="1">
          <mxGeometry width="160" relative="1" as="geometry">
            <mxPoint x="635" y="609" as="sourcePoint" />
            <mxPoint x="596" y="675" as="targetPoint" />
            <Array as="points">
              <mxPoint x="635" y="609" />
              <mxPoint x="635" y="563" />
            </Array>
          </mxGeometry>
        </mxCell>
        <mxCell id="tOcL6-T-TK3MPG_TwiWJ-78" value="SecureM2MJwtClient" style="swimlane;fontStyle=1;align=center;verticalAlign=top;childLayout=stackLayout;horizontal=1;startSize=26;horizontalStack=0;resizeParent=1;resizeParentMax=0;resizeLast=0;collapsible=1;marginBottom=0;whiteSpace=wrap;html=1;" parent="1" vertex="1">
          <mxGeometry x="1160" y="540" width="135" height="60" as="geometry" />
        </mxCell>
        <mxCell id="tOcL6-T-TK3MPG_TwiWJ-79" value="GetToken()" style="text;strokeColor=none;fillColor=none;align=left;verticalAlign=top;spacingLeft=4;spacingRight=4;overflow=hidden;rotatable=0;points=[[0,0.5],[1,0.5]];portConstraint=eastwest;whiteSpace=wrap;html=1;" parent="tOcL6-T-TK3MPG_TwiWJ-78" vertex="1">
          <mxGeometry y="26" width="135" height="34" as="geometry" />
        </mxCell>
        <mxCell id="tOcL6-T-TK3MPG_TwiWJ-80" value="" style="endArrow=open;endSize=12;dashed=1;html=1;rounded=0;edgeStyle=orthogonalEdgeStyle;exitX=0.841;exitY=0.011;exitDx=0;exitDy=0;exitPerimeter=0;entryX=0;entryY=0.5;entryDx=0;entryDy=0;" parent="1" source="tOcL6-T-TK3MPG_TwiWJ-47" target="tOcL6-T-TK3MPG_TwiWJ-78" edge="1">
          <mxGeometry width="160" relative="1" as="geometry">
            <mxPoint x="1432" y="649" as="sourcePoint" />
            <mxPoint x="1393" y="715" as="targetPoint" />
            <Array as="points">
              <mxPoint x="1082" y="570" />
            </Array>
          </mxGeometry>
        </mxCell>
        <mxCell id="tOcL6-T-TK3MPG_TwiWJ-81" value="" style="endArrow=none;html=1;edgeStyle=orthogonalEdgeStyle;rounded=0;exitX=0.5;exitY=0;exitDx=0;exitDy=0;" parent="1" source="tOcL6-T-TK3MPG_TwiWJ-24" target="tOcL6-T-TK3MPG_TwiWJ-37" edge="1">
          <mxGeometry relative="1" as="geometry">
            <mxPoint x="435" y="665" as="sourcePoint" />
            <mxPoint x="595" y="665" as="targetPoint" />
            <Array as="points">
              <mxPoint x="413" y="665" />
            </Array>
          </mxGeometry>
        </mxCell>
        <mxCell id="tOcL6-T-TK3MPG_TwiWJ-84" value="" style="endArrow=none;html=1;edgeStyle=orthogonalEdgeStyle;rounded=0;" parent="1" source="tOcL6-T-TK3MPG_TwiWJ-24" target="tOcL6-T-TK3MPG_TwiWJ-29" edge="1">
          <mxGeometry relative="1" as="geometry">
            <mxPoint x="560" y="818" as="sourcePoint" />
            <mxPoint x="737" y="768" as="targetPoint" />
            <Array as="points" />
          </mxGeometry>
        </mxCell>
      </root>
    </mxGraphModel>
  </diagram>
</mxfile>
